<svg version="1.2" xmlns="http://www.w3.org/2000/svg" viewBox="0 0 386 135" width="386" height="135">
	<title>image</title>
	<style>
		.s0 { fill: #54130e;stroke: #54130e;stroke-miterlimit:2;stroke-width: .4 } 
		.s1 { fill: #6d2517;stroke: #6d2517;stroke-miterlimit:2;stroke-width: .4 } 
		.s2 { fill: #863820;stroke: #863820;stroke-miterlimit:2;stroke-width: .4 } 
		.s3 { fill: #9e4a29;stroke: #9e4a29;stroke-miterlimit:2;stroke-width: .4 } 
		.s4 { fill: #b75d32;stroke: #b75d32;stroke-miterlimit:2;stroke-width: .4 } 
		.s5 { fill: #d06f3b;stroke: #d06f3b;stroke-miterlimit:2;stroke-width: .4 } 
	</style>
	<g id="logo-group">
		<g id="logo-center">
			<g id="slogan">
			</g>
			<g id="title">
				<path id="path196649" class="s0" d="m73.3 72.5l-6.1-1.9c-2.1-0.6-2.7 0.1-3.9 2.5-6.9 12-15.4 18.3-24.9 18.3-11.7 0-15.8-9.1-13.6-18.6 2.2-9.6 10-16.1 18.9-16.1 3 0 5.7 0.8 7.7 1.7 1.9 0.8 2.6 0.8 4-0.8l4.7-5.5c1.1-1.4 1.4-2.3-0.6-4.3-3.6-3.3-11.1-6.9-19.4-6.9-15.3 0-32.3 12-35.6 31.2-3.1 19.1 8.8 35 28.9 35 18 0 34.4-12.6 41.6-31.2 0.6-1.7 0.1-2.8-1.7-3.4z"/>
				<path id="path196651" fill-rule="evenodd" class="s1" d="m129.1 74c-1.1 6.3-3.8 12.2-7.7 17.2 0.8 0.2 1.7 0.2 2.5 0.2 10.2 0 16.4-13 18-17.5 1.1-3.3 2.2-3.8 4-3.3l6.1 1.9c1.9 0.6 2.2 1.7 1.4 4.6-3.7 14.1-14 28.2-30 28.2-4.2 0-9.8-1-15-3.2-5.6 3.2-12 5-18.6 5-18.7 0-31.5-14.8-28.5-33.5 2.8-17.9 19-32.7 38.4-32.7 19.5 0 32.2 14.8 29.4 33.1zm-31.3-17.3c-7.5 0-14.7 6.5-16.2 16.7-1.8 10.2 3.2 18 10.7 18q2.4 0 4.7-1c-0.3-3.1 6.7-9.3 9.4-9.2 1.1-2.2 1.9-4.7 2.3-7.2 1.6-9.5-2.6-17.3-10.9-17.3z"/>
				<path id="path196653" fill-rule="evenodd" class="s2" d="m176.9 40.9c8.5 0 13.9 3.7 16.2 5.9l6.6-41.8c0.1-1.9 1.7-3.2 3.6-3.2h12.5c1.7 0 2.8 1.4 2.6 3.2l-11.5 73.1c-1.3 8.3-0.8 13.3 3.5 13.3 7.2 0 12.5-13.2 14.7-18.9 0.7-1.9 1.8-2.4 3.6-1.9l6.1 1.9c1.9 0.6 2.2 1.7 1.7 3.4-3.4 13.1-13.4 31.2-30.9 31.2-8.9 0-15.2-4.6-17.5-11.8-3.4 5-12.3 11.8-23.6 11.8-18.9 0-26.6-19.5-20.8-38.4 4.9-16.1 18.2-27.8 33.2-27.8zm-14.6 33c-2.3 9.2 0.8 17.5 8.1 17.5 9.7 0 18-13.9 20.4-29.4h-0.2c-1.6-1.7-4.5-4.9-9.8-4.9-7.5 0-15.8 6-18.5 16.8z"/>
				<path id="path196655" fill-rule="evenodd" class="s3" d="m287.7 70.6l6.1 1.9c1.9 0.6 2.3 1.7 1.7 3.4-6.2 17.2-22.5 31.2-42 31.2-20.5 0-35.2-15.6-30.9-35.9 3.7-18.6 20.9-30.3 36.5-30.3 14.1 0 23.8 9.5 20.6 22.2-3.6 15-22.3 21.4-35.9 21.1 2.2 4.2 6.4 6.9 13.1 6.9 9.6 0 20.7-5.2 26.6-17.4 1.6-3.1 2.3-3.7 4.2-3.1zm-24.2-9.2c0-2.5-1.7-4.4-4.9-4.4-5.9 0-14.3 7.2-16 16.7 0 0.3-0.2 0.8-0.2 1.1 10.6-0.5 21.1-7 21.1-13.4z"/>
				<path id="path196657" class="s4" d="m343.3 72.5c-2.4 6.4-8.6 18.9-16.1 18.9-3.6 0-6.1-3-4.4-10.5 2-9.2 5.3-20.5 5.6-21.7 1.1-5.2 0.8-8-4.3-10.3-7.8-3.5-17.4-6.4-21.9-9.7 0.3-6.1-2.8-11.3-8.9-10.6-7 0.6-10 8.1-6.3 17.3 1 5.5 0.3 18.1-3.2 27.7-0.7 1.4-0.4 2.5 1 2.9l7.4 2.8c1.4 0.5 2.3 0.3 2.8-1.2 2.3-7.5 4.1-16.1 5-24.9l6.1 2.9c2.5 1 3.3 2.3 2.5 5.4-2 8.9-4.5 15.2-5.8 22.5-1.9 12.2 7.4 23.1 20.5 23.1 17 0 27.9-18.1 31.4-31.2 0.5-1.7 0.1-2.8-1.7-3.4l-6.1-1.9c-1.9-0.6-3 0-3.6 1.9z"/>
				<path id="path196659" class="s5" d="m384.4 77.9c-1.6-13.1-11.6-18.7-12.7-30.8-0.3-3.2-1.1-4.3-2.8-4.3h-12.5c-1.9 0-3.3 0.9-3.8 3.6-0.1 1.2-0.9 4.5-1.8 7l-7.8 19.7c-0.5 1.1-0.2 1.7 0.6 2.2l9 2.6c1.3 0.3 1.6 0 1.8-0.9l4.2-13.8c4.4 5 7.6 11 7.6 16.9 0 6.4-4.2 11.3-11.2 11.3-4.9 0-8-1.9-11.6-4.9-1.1-0.9-2-1.1-3.1 0.3-0.6 0.8-4.1 4.7-5 6.3-0.8 1.1-0.6 1.7 0.3 2.8 0.6 0.8 9.5 11.2 24.4 11.2 18.4 0 25.9-16 24.4-29.2z"/>
			</g>
		</g>
	</g>
</svg>